<?xml version="1.0" encoding="UTF-8"?>
<svg version="1.1" xmlns="http://www.w3.org/2000/svg" width="370" height="370">
<path d="M0 0 C3.71435895 1.09472597 6.99266316 3.01670823 10.359375 4.90625 C11.38466309 5.48044678 12.40995117 6.05464355 13.46630859 6.64624023 C14.54992676 7.25798096 15.63354492 7.86972168 16.75 8.5 C17.86584473 9.127854 18.98168945 9.75570801 20.13134766 10.40258789 C32.94471232 17.63189303 45.67441429 24.9604171 58 33 C54.58512814 36.89013754 50.74983352 38.98255794 46.25 41.375 C38.52162374 45.57167395 30.89977936 49.92836629 23.3125 54.375 C22.29768555 54.96974121 21.28287109 55.56448242 20.23730469 56.17724609 C19.26825195 56.74523926 18.29919922 57.31323242 17.30078125 57.8984375 C16.38635254 58.43307617 15.47192383 58.96771484 14.52978516 59.51855469 C12.95372664 60.4414965 11.38004191 61.36851913 9.81005859 62.30175781 C5.22020413 65 5.22020413 65 3 65 C3 65.66 3 66.32 3 67 C3.71953857 67.27295898 4.43907715 67.54591797 5.18041992 67.82714844 C7.9533802 68.98060771 10.4947937 70.29738687 13.11328125 71.765625 C14.10328125 72.31968018 15.09328125 72.87373535 16.11328125 73.44458008 C17.16902344 74.04036865 18.22476563 74.63615723 19.3125 75.25 C20.94832031 76.16978638 20.94832031 76.16978638 22.6171875 77.1081543 C30.61224218 81.61799391 38.56772034 86.19311007 46.5 90.8125 C48.05714722 91.71887207 48.05714722 91.71887207 49.64575195 92.64355469 C50.59796631 93.20075195 51.55018066 93.75794922 52.53125 94.33203125 C53.37236328 94.82421143 54.21347656 95.3163916 55.08007812 95.82348633 C57 97 57 97 58 98 C58.14144333 100.02249637 58.2124976 102.0499423 58.25634766 104.0769043 C58.28532135 105.37883224 58.31429504 106.68076019 58.34414673 108.0221405 C58.43375533 113.21022491 58.50148799 118.39860816 58.54844093 123.58725262 C58.58418749 127.52719359 58.63742816 131.46508984 58.73388672 135.40405273 C58.82684853 139.21150188 58.87538194 143.01714291 58.89283371 146.82566261 C58.90690917 148.27509709 58.93650917 149.72446947 58.98213577 151.17325401 C59.32075105 162.48067993 59.32075105 162.48067993 56.13641357 166.14376831 C53.82125816 167.71778704 51.56318036 168.88363979 49 170 C47.99453125 170.59651367 46.9890625 171.19302734 45.953125 171.80761719 C44.61507812 172.5447998 44.61507812 172.5447998 43.25 173.296875 C42.23711914 173.85850342 41.22423828 174.42013184 40.18066406 174.9987793 C39.13104492 175.57668213 38.08142578 176.15458496 37 176.75 C20.30201361 185.70527455 20.30201361 185.70527455 4.359375 195.89453125 C2 197 2 197 -0.32788086 196.24194336 C-2.99290384 195.00329814 -5.55000109 193.67165724 -8.11328125 192.234375 C-9.10312012 191.68040039 -10.09295898 191.12642578 -11.11279297 190.55566406 C-12.16869629 189.95979492 -13.22459961 189.36392578 -14.3125 188.75 C-15.40449707 188.13608398 -16.49649414 187.52216797 -17.62158203 186.88964844 C-47.13184139 170.24543907 -47.13184139 170.24543907 -55 165 C-55 164.01 -55 163.02 -55 162 C-54.27111572 161.59797363 -53.54223145 161.19594727 -52.79125977 160.78173828 C-38.75412055 153.03184886 -24.75218389 145.24895012 -11 137 C-9.9275 136.35933594 -8.855 135.71867188 -7.75 135.05859375 C-5.49730898 133.71010788 -3.24691185 132.35808431 -1 131 C-1.79148438 130.62488281 -2.58296875 130.24976563 -3.3984375 129.86328125 C-7.96700498 127.57899751 -12.2703253 124.84971434 -16.625 122.1875 C-23.12535104 118.2416377 -29.60284056 114.5810341 -36.4609375 111.296875 C-39.75359712 109.61508578 -42.75311746 107.62354575 -45.76953125 105.4921875 C-47.69380336 104.20484609 -49.62748404 103.04826369 -51.6394043 101.90673828 C-52.74840088 101.27751465 -53.85739746 100.64829102 -55 100 C-55.5598332 91.37770118 -55.98412895 82.76312521 -56.24349213 74.12707329 C-56.36810636 70.1144297 -56.53628478 66.11430757 -56.81054688 62.10888672 C-58.52345651 36.41446417 -58.52345651 36.41446417 -52.81362915 29.26074219 C-47.17163356 24.58723324 -40.79730605 21.80100455 -34.00079346 19.19464111 C-29.95229379 17.58289935 -26.34517465 15.46824748 -22.63671875 13.203125 C-21.45501483 12.524204 -20.27083928 11.84956309 -19.08398438 11.1796875 C-15.57993295 9.18888657 -12.07622815 7.1975164 -8.57421875 5.203125 C-7.56963623 4.63239258 -6.56505371 4.06166016 -5.5300293 3.47363281 C-3.6490112 2.378021 -1.81123309 1.20748873 0 0 Z " fill="#D21E25" transform="translate(249,113)"/>
<path d="M0 0 C1.24861816 0.67772461 1.24861816 0.67772461 2.52246094 1.36914062 C3.37807617 1.81580078 4.23369141 2.26246094 5.11523438 2.72265625 C6.02821289 3.23505859 6.94119141 3.74746094 7.88183594 4.27539062 C8.90712402 4.8495874 9.93241211 5.42378418 10.98876953 6.01538086 C12.0723877 6.62712158 13.15600586 7.2388623 14.27246094 7.86914062 C15.38830566 8.49699463 16.50415039 9.12484863 17.65380859 9.77172852 C30.46717326 17.00103366 43.19687523 24.32955772 55.52246094 32.36914062 C52.10759909 36.25926675 48.27229332 38.35173057 43.77246094 40.74414062 C35.05640599 45.47644094 26.48647948 50.43478867 17.93554688 55.45849609 C16.02832026 56.57748325 14.11842511 57.69193766 12.20556641 58.80126953 C10.45319611 59.82526608 8.71189566 60.86851369 6.98388672 61.93310547 C6.20384277 62.40055176 5.42379883 62.86799805 4.62011719 63.34960938 C3.94601807 63.7649292 3.27191895 64.18024902 2.57739258 64.6081543 C-0.19971744 65.63657914 -1.66625035 65.24816855 -4.47753906 64.36914062 C-7.01928711 63.11669922 -7.01928711 63.11669922 -9.73925781 61.51757812 C-10.76422363 60.92017822 -11.78918945 60.32277832 -12.84521484 59.70727539 C-13.94075684 59.05944092 -15.03629883 58.41160645 -16.16503906 57.74414062 C-17.89420814 56.73355049 -19.62338428 55.72297222 -21.35296631 54.71308899 C-23.16149803 53.65600928 -24.96826093 52.59595109 -26.77490234 51.53564453 C-32.28569009 48.30579929 -37.82323311 45.12230728 -43.35903931 41.93560791 C-46.14176412 40.333219 -48.92286289 38.72801344 -51.70410156 37.12304688 C-52.62787598 36.5901001 -53.55165039 36.05715332 -54.50341797 35.50805664 C-55.15487793 35.13221436 -55.80633789 34.75637207 -56.47753906 34.36914062 C-56.47753906 33.04914063 -56.47753906 31.72914063 -56.47753906 30.36914062 C-55.84589844 30.01835449 -55.21425781 29.66756836 -54.56347656 29.30615234 C-29.17339993 15.88557185 -29.17339993 15.88557185 -4.98632812 0.56518555 C-2.47753906 -0.63085938 -2.47753906 -0.63085938 0 0 Z " fill="#FBCCD5" transform="translate(251.4775390625,113.630859375)"/>
<path d="M0 0 C13.65786979 6.82893489 13.65786979 6.82893489 19.625 10.4375 C25.00497199 13.64847901 30.40471801 16.82171167 35.8359375 19.9453125 C36.42653961 20.28504593 37.01714172 20.62477936 37.62564087 20.97480774 C40.01082786 22.3461107 42.39647459 23.71660007 44.7835083 25.08468628 C46.46059203 26.04603023 48.13657023 27.009302 49.8125 27.97265625 C50.78832031 28.53218994 51.76414063 29.09172363 52.76953125 29.66821289 C55 31 55 31 56 32 C56.09409479 34.02494231 56.11743122 36.0531987 56.11352539 38.08032227 C56.11344986 39.38159561 56.11337433 40.68286896 56.11329651 42.02357483 C56.10818909 43.45451902 56.10297308 44.88546282 56.09765625 46.31640625 C56.09579203 47.7722926 56.09436815 49.22817957 56.09336853 50.68406677 C56.08954365 54.52279379 56.07971364 58.36148319 56.06866455 62.20019531 C56.05844978 66.11457816 56.05387077 70.02896706 56.04882812 73.94335938 C56.03809134 81.62892343 56.02101529 89.31445645 56 97 C51.79733369 95.84804504 48.34715905 94.8876508 44.8125 92.3125 C37.49648481 87.21608942 29.82537753 82.84199376 21.8125 78.9375 C17.36016581 76.75783248 13.27730228 74.35162676 9.23046875 71.4921875 C6.25470625 69.50139718 3.108554 67.77631657 0 66 C0 44.22 0 22.44 0 0 Z " fill="#EF3D4E" transform="translate(194,147)"/>
<path d="M0 0 C0.33 21.78 0.66 43.56 1 66 C-2.62806134 64.54877547 -5.74228784 63.12455815 -9.11328125 61.234375 C-10.10312012 60.68040039 -11.09295898 60.12642578 -12.11279297 59.55566406 C-13.16869629 58.95979492 -14.22459961 58.36392578 -15.3125 57.75 C-16.40449707 57.13608398 -17.49649414 56.52216797 -18.62158203 55.88964844 C-48.13184139 39.24543907 -48.13184139 39.24543907 -56 34 C-56 33.01 -56 32.02 -56 31 C-54.90667358 30.39696045 -54.90667358 30.39696045 -53.79125977 29.78173828 C-35.52808696 19.70362672 -35.52808696 19.70362672 -17.48461914 9.23925781 C-1.92844362 0 -1.92844362 0 0 0 Z " fill="#7C151B" transform="translate(250,244)"/>
<path d="M0 0 C0 21.45 0 42.9 0 65 C-11.25170068 59.37414966 -11.25170068 59.37414966 -15.453125 56.90625 C-16.39220703 56.35662598 -17.33128906 55.80700195 -18.29882812 55.24072266 C-19.27271484 54.66628418 -20.24660156 54.0918457 -21.25 53.5 C-22.27544922 52.89849121 -23.30089844 52.29698242 -24.35742188 51.67724609 C-27.57396063 49.78878527 -30.78741285 47.89517438 -34 46 C-35.07314453 45.36739258 -36.14628906 44.73478516 -37.25195312 44.08300781 C-43.50532852 40.39546216 -49.75478585 36.7013501 -56 33 C-54.74327861 29.22983584 -53.70437669 28.99288597 -50.27734375 27.13671875 C-49.27461426 26.5859668 -48.27188477 26.03521484 -47.23876953 25.46777344 C-46.14935059 24.8802832 -45.05993164 24.29279297 -43.9375 23.6875 C-41.66170913 22.43811096 -39.38699831 21.18675289 -37.11328125 19.93359375 C-36.23721222 19.45232529 -36.23721222 19.45232529 -35.34344482 18.96133423 C-29.0441634 15.49309479 -22.83089231 11.88268261 -16.625 8.25 C-15.60398193 7.65405029 -14.58296387 7.05810059 -13.53100586 6.4440918 C-2.52402841 0 -2.52402841 0 0 0 Z " fill="#F695A6" transform="translate(250,114)"/>
<path d="M0 0 C4.28456404 1.42818801 7.1910008 2.51298523 10.921875 4.73046875 C11.85314209 5.27928711 12.78440918 5.82810547 13.74389648 6.39355469 C14.73591064 6.98555664 15.7279248 7.57755859 16.75 8.1875 C18.88097518 9.44752023 21.01250678 10.7065998 23.14453125 11.96484375 C24.25650879 12.62210449 25.36848633 13.27936523 26.51416016 13.95654297 C30.09973748 16.066191 33.70959601 18.13203064 37.32421875 20.19140625 C38.52441464 20.87670797 39.72460996 21.56201069 40.92480469 22.24731445 C43.24177319 23.56975782 45.56186037 24.88617642 47.88378906 26.19995117 C49.45531738 27.09870972 49.45531738 27.09870972 51.05859375 28.015625 C51.98986084 28.54446289 52.92112793 29.07330078 53.88061523 29.61816406 C56 31 56 31 57 33 C56.05253906 33.5261792 56.05253906 33.5261792 55.0859375 34.06298828 C41.96105516 41.3606309 28.89756226 48.73518702 15.97070312 56.37939453 C14.57561523 57.20093018 14.57561523 57.20093018 13.15234375 58.0390625 C12.34788818 58.51553223 11.54343262 58.99200195 10.71459961 59.48291016 C7.20787196 61.44269121 3.59309121 63.20345439 0 65 C0 43.55 0 22.1 0 0 Z " fill="#EC262F" transform="translate(250,179)"/>
<path d="M0 0 C3.62806134 1.45122453 6.74228784 2.87544185 10.11328125 4.765625 C11.10312012 5.31959961 12.09295898 5.87357422 13.11279297 6.44433594 C14.16869629 7.04020508 15.22459961 7.63607422 16.3125 8.25 C17.40449707 8.86391602 18.49649414 9.47783203 19.62158203 10.11035156 C49.13184139 26.75456093 49.13184139 26.75456093 57 32 C50.2338685 36.70297398 43.21435708 40.77783902 36 44.75 C28.32945745 49.00801698 20.68134345 53.29189134 13.125 57.75 C12.43664062 58.15573242 11.74828125 58.56146484 11.0390625 58.97949219 C8.31349268 60.59500667 5.63694315 62.2420379 3 64 C2.01 64 1.02 64 0 64 C0 42.88 0 21.76 0 0 Z " fill="#A61B21" transform="translate(250,245)"/>
<path d="M0 0 C13.65488615 6.82744307 13.65488615 6.82744307 19.625 10.4375 C21.05266457 11.28897022 22.48110843 12.13913463 23.91015625 12.98828125 C24.69664551 13.45572754 25.48313477 13.92317383 26.29345703 14.40478516 C31.85952377 17.68538051 37.46367729 20.90074005 43.0625 24.125 C44.24756824 24.80784459 45.43262704 25.49070556 46.61767578 26.17358398 C49.41142927 27.78300641 52.20552475 29.39183122 55 31 C55 31.66 55 32.32 55 33 C54.2879541 33.40613525 53.5759082 33.81227051 52.84228516 34.23071289 C50.06628323 35.81449457 47.29054457 37.39873629 44.51504517 38.98339844 C43.25742563 39.70142318 41.99975574 40.41935973 40.74203491 41.13720703 C33.61276008 45.20695918 26.49012546 49.28757827 19.38671875 53.40234375 C18.78589478 53.75015396 18.1850708 54.09796417 17.56604004 54.45631409 C14.68056114 56.12700637 11.79657191 57.80014871 8.91455078 59.47680664 C7.37323486 60.3700061 7.37323486 60.3700061 5.80078125 61.28125 C4.89497314 61.80783203 3.98916504 62.33441406 3.0559082 62.87695312 C1 64 1 64 0 64 C0 42.88 0 21.76 0 0 Z " fill="#F26178" transform="translate(194,147)"/>
</svg>
