<?xml version="1.0" encoding="UTF-8"?>
<svg version="1.1" xmlns="http://www.w3.org/2000/svg" width="500" height="500">
<path d="M0 0 C-0.59683594 0.29519531 -1.19367188 0.59039062 -1.80859375 0.89453125 C-6.22821018 3.12403473 -9.31643461 4.87542468 -11.9375 9.1875 C-13.43852561 14.57353307 -13.57495802 18.98326056 -10.9375 24.03515625 C-4.84527932 32.74080114 3.80616887 38.968744 12.4375 44.9375 C23.82843958 52.83073932 35.41850703 61.31715552 40 75 C40.8858403 82.46783978 40.4212612 88.78987325 36 95 C29.31972054 103.01633535 20.07073577 107.73310734 10 110 C6.62982134 110.27313866 3.36888727 110.26831846 0 110 C0.61617187 109.70351563 1.23234375 109.40703125 1.8671875 109.1015625 C4.0783294 108.03843105 4.0783294 108.03843105 6.125 106.375 C8 105 8 105 10 105 C10.309375 104.21625 10.61875 103.4325 10.9375 102.625 C12 100 12 100 13 98 C13.5019089 90.47136651 11.88616735 86.15715553 7.125 80.25 C2.10324966 74.69964436 -3.99366694 70.41090084 -10 66 C-40.37143199 43.67248688 -40.37143199 43.67248688 -42.875 28.625 C-43.39528537 22.11589789 -41.436604 16.52764 -37.5625 11.3125 C-27.66286707 0.7233404 -13.51285726 -0.3759373 0 0 Z " fill="#FFFFFF" transform="translate(184,180)"/>
<path d="M0 0 C11.88 0 23.76 0 36 0 C35.01 0.66 34.02 1.32 33 2 C29.4050056 5.38352414 28.0478993 6.71233432 27.85955811 11.77546692 C27.84745452 13.44248538 27.84102425 15.10955032 27.83886719 16.77661133 C27.83390228 17.68570755 27.82893738 18.59480377 27.82382202 19.53144836 C27.8091798 22.54831694 27.80239471 25.56513293 27.796875 28.58203125 C27.79112491 30.6746979 27.78536716 32.76736452 27.77960205 34.86003113 C27.76908597 39.25247443 27.76324739 43.64489939 27.75976562 48.03735352 C27.75428191 53.66658603 27.73025897 59.29557654 27.70179367 64.92473316 C27.68317174 69.24929004 27.67796191 73.5737886 27.67642975 77.89838219 C27.67340131 79.97362274 27.66536638 82.04886222 27.65224457 84.12406349 C27.63519475 87.0279646 27.63706188 89.93127425 27.64355469 92.83520508 C27.6343399 93.69305603 27.62512512 94.55090698 27.6156311 95.43475342 C27.64828754 100.09597284 27.92282436 103.24306219 31 107 C33.57099402 108.34689915 33.57099402 108.34689915 36 109 C36 109.33 36 109.66 36 110 C20.49 110 4.98 110 -11 110 C-9.02 109.01 -9.02 109.01 -7 108 C-4.01374236 105.44035059 -2.66554771 103.84813338 -2 100 C-1.90756131 97.7852814 -1.87208734 95.56796474 -1.87060547 93.35131836 C-1.86885315 92.69231033 -1.86710083 92.03330231 -1.86529541 91.35432434 C-1.86090531 89.18280378 -1.86380452 87.01136509 -1.8671875 84.83984375 C-1.86651373 83.32817062 -1.86554308 81.81649759 -1.86428833 80.30482483 C-1.86281528 77.13997362 -1.86495362 73.97515066 -1.86962891 70.81030273 C-1.87533085 66.75265986 -1.87204177 62.69508305 -1.86605644 58.63744259 C-1.86244441 55.51737469 -1.86359229 52.39732248 -1.86618423 49.2772541 C-1.86685147 47.78091995 -1.86603217 46.28458437 -1.86370468 44.78825188 C-1.86116712 42.69855849 -1.86503413 40.60897249 -1.87060547 38.51928711 C-1.87140106 37.33000107 -1.87219666 36.14071503 -1.87301636 34.91539001 C-1.86913422 31.93485364 -1.86913422 31.93485364 -3 29 C-6.60992379 29.65585189 -6.60992379 29.65585189 -10 31 C-7.44872922 20.4061518 -3.64751361 10.25433071 0 0 Z " fill="#FFFFFF" transform="translate(322,180)"/>
<path d="M0 0 C12.54 0 25.08 0 38 0 C40.36691617 6.67086535 42.73330823 13.34191197 45.09838867 20.01342773 C45.902121 22.28013716 46.70615315 24.5467403 47.51049805 26.81323242 C48.67055981 30.0822362 49.82952155 33.35162823 50.98828125 36.62109375 C51.34465164 37.62458359 51.70102203 38.62807343 52.06819153 39.66197205 C54.10821534 45.42179944 56.08655863 51.19685429 58 57 C61.62885324 57.15149298 61.62885324 57.15149298 65 56 C63.10473493 63.27894499 60.93366673 70.39056722 58.42578125 77.48046875 C58.09708542 78.41933426 57.76838959 79.35819977 57.42973328 80.32551575 C56.39419987 83.28076843 55.35345189 86.23415215 54.3125 89.1875 C53.60316762 91.20886229 52.8941802 93.23034566 52.18554688 95.25195312 C50.46101001 100.1693733 48.7322052 105.08527617 47 110 C46.34 110 45.68 110 45 110 C35.61954356 83.34972291 26.29528876 56.68009575 17 30 C14.58380177 29.74969023 14.58380177 29.74969023 12 30 C11.34 30.99 10.68 31.98 10 33 C9.98541748 32.29915283 9.97083496 31.59830566 9.95581055 30.8762207 C9.88114513 27.68776991 9.78454525 24.50034487 9.6875 21.3125 C9.66494141 20.20970703 9.64238281 19.10691406 9.61914062 17.97070312 C9.5659668 16.3706543 9.5659668 16.3706543 9.51171875 14.73828125 C9.48553467 13.75899658 9.45935059 12.77971191 9.43237305 11.77075195 C8.78219543 7.60425516 6.94602368 4.94602368 4 2 C2.68 1.34 1.36 0.68 0 0 Z " fill="#FFFFFF" transform="translate(240,180)"/>
<path d="M0 0 C5.46602787 2.3851758 8.73630845 6.55750754 11 12 C12.14906149 17.72532375 10.94455539 22.25019633 8.15625 27.2890625 C7 29 7 29 4.75 31.1875 C2.80352144 32.90160404 2.80352144 32.90160404 2.375 35.5 C2.813661 38.2795085 2.813661 38.2795085 5.625 40.25 C8.89522205 41.94567069 11.35999644 42.65333299 15 43 C15 43.33 15 43.66 15 44 C4.35563547 44.7096243 -5.516796 41.51036586 -14 35 C-20.62639616 28.96261683 -23.48730542 24.02842651 -24 15 C-23.09496006 9.34111872 -20.40260042 5.65093693 -16 2 C-11.06516822 -1.05335997 -5.60432151 -0.58676118 0 0 Z " fill="#FFFFFF" transform="translate(165,246)"/>
<path d="M0 0 C0.66531738 0.03552979 1.33063477 0.07105957 2.01611328 0.10766602 C5.05210138 0.26599414 8.08849972 0.41433342 11.125 0.5625 C12.17171875 0.61857422 13.2184375 0.67464844 14.296875 0.73242188 C15.82441406 0.80493164 15.82441406 0.80493164 17.3828125 0.87890625 C18.31496582 0.9260376 19.24711914 0.97316895 20.20751953 1.02172852 C23.55466821 1.06862764 23.55466821 1.06862764 29 0 C29 9.9 29 19.8 29 30 C27.09510101 27.14265151 25.71363108 24.35037981 24.25 21.25 C19.08380135 10.93005136 13.31342647 5.69442028 2.4375 1.6875 C1.633125 1.460625 0.82875 1.23375 0 1 C0 0.67 0 0.34 0 0 Z " fill="#FFFFFF" transform="translate(188,180)"/>
<path d="M0 0 C2 3 2 3 3.1875 6.8125 C4.9383446 11.5660431 7.67100668 14.40942132 12 17 C14.69618067 17.98042933 17.15606839 18.50106463 20 19 C20 19.33 20 19.66 20 20 C7.46 20 -5.08 20 -18 20 C-18 19.67 -18 19.34 -18 19 C-17.41992188 18.86464844 -16.83984375 18.72929687 -16.2421875 18.58984375 C-10.0343869 16.87911322 -6.32326434 14.59203134 -3 9 C-1.76209758 6.05060371 -0.80015026 3.0953181 0 0 Z " fill="#FFFFFF" transform="translate(250,270)"/>
</svg>
